# xmcd CD database file
#
# Track frame offsets:
#	150
#	25264
#	38884
#	52246
#	63065
#	85305
#	104233
#	118233
#	130181
#	149301
#	170654
#	180485
#
# Disc length: 2537 seconds
#
# Revision: 0
# Processed by: cddbd v1.4PL0 Copyright (c) Steve Scherf et al.
# Submitted via: CdAid 2001.05.15.01
#
DISCID=b009e70c
DTITLE=Good Medicine - Sketches
DYEAR=1900
DGENRE=
TTITLE0=I Know You Rider
TTITLE1=Tomorrow Was A Long Time Ago
TTITLE2=They'll Know Who I Am
TTITLE3=Another Love, ANother Broken Heart
TTITLE4=Drum Left Unplayed
TTITLE5=Sketches
TTITLE6=It Takes A Lot To Laugh, It Takes A Train To Cry
TTITLE7=I've Got A Secret
TTITLE8=Life Goes By
TTITLE9=Portland
TTITLE10=Travelogue
TTITLE11=Amazing Grace (Cherokee and Enlishe Vr.)
EXTD=
EXTT0=
EXTT1=
EXTT2=
EXTT3=
EXTT4=
EXTT5=
EXTT6=
EXTT7=
EXTT8=
EXTT9=
EXTT10=
EXTT11=
PLAYORDER=
